<svg xmlns="http://www.w3.org/2000/svg" viewBox="0 0 100 100" width="100" height="100">
  <defs>
    <linearGradient id="grad1" x1="0%" y1="0%" x2="100%" y2="100%">
      <stop offset="0%" style="stop-color:#FF6B00;stop-opacity:1" />
      <stop offset="100%" style="stop-color:#FF9500;stop-opacity:1" />
    </linearGradient>
    <linearGradient id="grad2" x1="0%" y1="0%" x2="100%" y2="100%">
      <stop offset="0%" style="stop-color:#3B82F6;stop-opacity:1" />
      <stop offset="100%" style="stop-color:#60A5FA;stop-opacity:1" />
    </linearGradient>
  </defs>
  
  <!-- S3 Bucket Icon -->
  <path d="M20 30 L50 15 L80 30 L80 70 L50 85 L20 70 Z" fill="url(#grad2)" opacity="0.9"/>
  <path d="M50 15 L50 85" stroke="#fff" stroke-width="1" opacity="0.3"/>
  <path d="M20 30 L80 30" stroke="#fff" stroke-width="1" opacity="0.3"/>
  <path d="M20 50 L80 50" stroke="#fff" stroke-width="1" opacity="0.3"/>
  <path d="M20 70 L80 70" stroke="#fff" stroke-width="1" opacity="0.3"/>
  
  <!-- Parquet Columns -->
  <rect x="28" y="35" width="8" height="30" fill="url(#grad1)" rx="1"/>
  <rect x="40" y="35" width="8" height="30" fill="url(#grad1)" rx="1"/>
  <rect x="52" y="35" width="8" height="30" fill="url(#grad1)" rx="1"/>
  <rect x="64" y="35" width="8" height="30" fill="url(#grad1)" rx="1"/>
  
  <!-- Arrow indicating data flow -->
  <path d="M50 75 L50 90 M45 85 L50 90 L55 85" stroke="url(#grad1)" stroke-width="3" fill="none" stroke-linecap="round" stroke-linejoin="round"/>
</svg>
